<?xml version="1.0" encoding="utf-8"?>
<!-- Generator: Adobe Illustrator 24.0.2, SVG Export Plug-In . SVG Version: 6.00 Build 0)  -->
<svg version="1.1" id="Layer_1" xmlns="http://www.w3.org/2000/svg" xmlns:xlink="http://www.w3.org/1999/xlink" x="0px" y="0px"
	 viewBox="0 0 512 512" style="enable-background:new 0 0 512 512;" xml:space="preserve">
<style type="text/css">
	.st0{fill:#2ECC71;}
	.st1{fill:#FFC850;}
	.st2{fill:#2ABC68;}
	.st3{fill:#FFB23C;}
	.st4{fill:#FFFFFF;}
	.st5{fill:#FAF0C3;}
</style>
<circle class="st0" cx="256" cy="256" r="256"/>
<circle class="st1" cx="256" cy="256" r="173.7"/>
<path class="st2" d="M118.9,256c0-120.9,83.9-222.2,196.6-249c-19.1-4.5-39-7-59.4-7C114.6,0,0,114.6,0,256
	c0,141.4,114.6,256,256,256c20.5,0,40.3-2.5,59.4-7C202.7,478.2,118.9,376.9,118.9,256z"/>
<path class="st3" d="M166.9,404.9c-30.1-42-48-93.3-48-148.9s17.9-106.9,48-148.9c-50.6,30.4-84.6,85.6-84.6,148.9
	S116.3,374.5,166.9,404.9z"/>
<path class="st4" d="M430.5,145.5c-3.6-3.6-9.4-3.6-12.9,0l-52.2,52.2c-3.8,3.8-10,3.8-13.9,0l-1.3-1.3c-3.8-3.8-3.8-10,0-13.9
	l52-52c3.6-3.6,3.6-9.4,0-12.9s-9.4-3.6-12.9,0l-52,52c-3.8,3.8-10,3.8-13.9,0l0,0c-3.8-3.8-3.8-10,0-13.9l52.2-52.2
	c3.6-3.6,3.6-9.4,0-12.9s-9.4-3.6-12.9,0L307,146.4c-8.7,8.6-13.8,19.7-14,30.3l-0.3,23.8c0,2.5-1.1,4.9-3,6.6L117.4,365.8
	c-10.1,10.1-10.1,26.6,0,36.7s26.6,10.1,36.7,0l158.4-172.1c1.7-1.9,4.2-3,6.8-3l24.4,0.2c0.2,0,0.4,0,0.6,0
	c10.8,0,21.9-4.9,30.5-13.5l55.8-55.8C434.1,154.8,434.1,149,430.5,145.5z"/>
<path class="st5" d="M269.7,225.6l-72.9,67.1l16.3,16.3c5,5,11.2,8.3,17.8,10.1l63.3-68.8L269.7,225.6z"/>
<path class="st4" d="M130.8,112.6l253.9,253.9c10.1,10.1,10.1,26.6,0,36.7l0,0c-10.1,10.1-26.6,10.1-36.7,0l-61.7-61.7
	c-6.3-6.3-7.7-15.7-4.2-23.4c1.8-4,1.5-8.7-1.6-11.9L270.1,296c-4.1-4.1-10.6-4.1-14.7,0l0,0c-8.1,8.1-21.3,8.1-29.4,0l-70.2-70.2
	c-52.1-52.1-47.2-91.7-40-110.3C118.3,109.4,126.2,108,130.8,112.6z"/>
</svg>
